HIERARCHY
ROOT ui
{
	 OFFSET 0 0 0
	 CHANNELS 3 XPosition YPosition Z Position
	 EndSite
	 {
	 OFFSET 0 -1 0
	 }
}
ROOT li
{
	 OFFSET 0 0 0
	 CHANNELS 3 XPosition YPosition Z Position
	 EndSite
	 {
	 OFFSET 0 -1 0
	 }
}
ROOT ul
{
	 OFFSET 0 0 0
	 CHANNELS 3 XPosition YPosition Z Position
	 EndSite
	 {
	 OFFSET 0 -1 0
	 }
}
ROOT ll
{
	 OFFSET 0 0 0
	 CHANNELS 3 XPosition YPosition Z Position
	 EndSite
	 {
	 OFFSET 0 -1 0
	 }
}
ROOT tt
{
	 OFFSET 0 0 0
	 CHANNELS 3 XPosition YPosition Z Position
	 EndSite
	 {
	 OFFSET 0 -1 0
	 }
}
ROOT tb
{
	 OFFSET 0 0 0
	 CHANNELS 3 XPosition YPosition Z Position
	 EndSite
	 {
	 OFFSET 0 -1 0
	 }
}
ROOT td
{
	 OFFSET 0 0 0
	 CHANNELS 3 XPosition YPosition Z Position
	 EndSite
	 {
	 OFFSET 0 -1 0
	 }
}
ROOT v
{
	 OFFSET 0 0 0
	 CHANNELS 3 XPosition YPosition Z Position
	 EndSite
	 {
	 OFFSET 0 -1 0
	 }
}
ROOT bn
{
	 OFFSET 0 0 0
	 CHANNELS 3 XPosition YPosition Z Position
	 EndSite
	 {
	 OFFSET 0 -1 0
	 }
}
MOTION
Frames: 16
Frame Time: 0.002
-0.01419991397857666	-6.72773003578186E-4	0		0.5844629516601563	-2.469994140625	0		-0.9873408203125	-0.004513631820678711	0		-0.5774037475585938	-2.452281005859375	0		1.5879306640625	-0.6673988647460938	0		3.12739990234375	-0.4952008972167969	0		4.2776796875	0.1092994842529297	0		6.03937353515625	0.44450726318359374	0		-0.0245286865234375	5.96501220703125	0		
-0.0053991031646728515	-0.00964310646057129	0		0.5823273315429688	-2.471823974609375	0		-1.0233599853515625	1.3663899898529053E-4	0		-0.5775122680664062	-2.452122802734375	0		1.5409580078125	-0.6586336669921875	0		3.0955771484375	-0.4756597900390625	0		4.26479541015625	0.12356887054443359	0		6.027412109375	0.45274072265625	0		-0.02452745246887207	5.9651630859375	0		
-0.014367512702941895	-4.194459915161133E-4	0		0.582201904296875	-2.471729736328125	0		-1.0105877075195313	-0.009921889305114746	0		-0.5756105346679687	-2.450039794921875	0		1.54677587890625	-0.6646333618164062	0		3.09672314453125	-0.4576156005859375	0		4.26307177734375	0.15063664245605468	0		6.0222197265625	0.44482781982421876	0		-0.008401506423950196	5.97504833984375	0		
0.002499661922454834	-0.0025980920791625977	0		0.5611854248046875	-2.462402587890625	0		-1.037540283203125	0.001509745955467224	0		-0.647635498046875	-2.441003662109375	0		1.5348123779296876	-0.6534428100585937	0		3.126745361328125	-0.4480174255371094	0		4.27538916015625	0.18145989990234376	0		6.03133837890625	0.46066729736328127	0		-0.0064451050758361815	5.9730732421875	0		
0.010371129989624023	-0.003708059072494507	0		0.5900305786132812	-2.462806396484375	0		-0.9995357666015625	0.010007506370544433	0		-0.56980810546875	-2.44305419921875	0		1.546714111328125	-0.6516309814453125	0		3.141084716796875	-0.4142602844238281	0		4.277658203125	0.20936282348632812	0		6.03923046875	0.4604642333984375	0		-0.008439802169799804	5.9750986328125	0		
-0.011666233062744141	0.0025346019268035888	0		0.5789525756835937	-2.45672265625	0		-1.0055879516601562	0.015049003601074218	0		-0.5740223999023437	-2.447046142578125	0		1.5355701904296875	-0.65256201171875	0		3.073990478515625	-0.41145590209960936	0		4.27182666015625	0.23031777954101562	0		6.03113134765625	0.46141983032226563	0		-0.024598882675170897	5.96526171875	0		
-0.0059545178413391115	-0.009656736373901367	0		0.5787869262695312	-2.45684326171875	0		-0.9697698974609374	0.010465227127075195	0		-0.5741879272460938	-2.4471474609375	0		1.535434814453125	-0.65269873046875	0		3.113155029296875	-0.3901513977050781	0		4.28305908203125	0.25598295593261716	0		6.035123046875	0.46915243530273437	0		-0.024623172760009766	5.96515087890625	0		
-0.0011471999883651733	-0.014890558242797851	0		0.55851318359375	-2.464746337890625	0		-1.04583203125	0.015351341247558594	0		-0.5743543090820312	-2.4473037109375	0		1.514315185546875	-0.6516055297851563	0		3.048125732421875	-0.38248638916015626	0		4.2841982421875	0.2747269287109375	0		6.03888427734375	0.45982769775390625	0		-0.008508657455444336	5.97476611328125	0		
0.011924055099487305	-0.0012890379428863526	0		0.5893753662109374	-2.4633994140625	0		-1.005953857421875	0.01460427188873291	0		-0.5704620361328125	-2.443568115234375	0		1.499104736328125	-0.65764697265625	0		3.084529541015625	-0.3442554016113281	0		4.282630859375	0.3144544677734375	0		6.0438828125	0.4674314270019531	0		-0.00852062702178955	5.97454638671875	0		
-0.008086133003234863	0.0057137908935546875	0		0.5554039916992187	-2.450216064453125	0		-1.0410032958984374	0.01883075714111328	0		-0.5675867919921875	-2.44186865234375	0		1.5171064453125	-0.6491904907226562	0		3.0886064453125	-0.33063671875	0		4.29880078125	0.333886962890625	0		6.04279736328125	0.4680662231445312	0		-0.02465555953979492	5.96449658203125	0		
0.0276809139251709	-0.005092597007751465	0		0.5801959228515625	-2.4558828125	0		-0.972088623046875	0.018590505599975587	0		-0.5707510375976562	-2.444132080078125	0		1.493962890625	-0.6522178344726562	0		3.118833251953125	-0.30742034912109373	0		4.29808349609375	0.36050527954101563	0		6.02883740234375	0.47683245849609374	0		0.009438727378845215	5.96971630859375	0		
-0.015349291801452636	-0.001859518051147461	0		0.54423046875	-2.44475634765625	0		-1.0180906982421876	0.023882543563842774	0		-0.570870361328125	-2.44447705078125	0		1.5030257568359375	-0.6417244873046875	0		3.073975830078125	-0.2912168579101562	0		4.29837109375	0.3860699462890625	0		6.02367529296875	0.4694375	0		-0.02559403419494629	5.9648408203125	0		
0.011591699600219727	-0.0026204540729522705	0		0.5799762573242188	-2.456649658203125	0		-1.018146728515625	0.023509876251220703	0		-0.5709702758789063	-2.444857666015625	0		1.4968624267578126	-0.6490590209960938	0		3.06223095703125	-0.26849984741210936	0		4.29450048828125	0.39865640258789065	0		6.03262646484375	0.46881613159179686	0		-0.009408696174621582	5.97422998046875	0		
-0.02546919250488281	-0.004532722949981689	0		0.5310662231445312	-2.444408203125	0		-1.0490703125	0.0315321159362793	0		-0.5659951171875	-2.44133740234375	0		1.493938232421875	-0.6404651489257812	0		3.091406494140625	-0.2533734130859375	0		4.294923828125	0.431158203125	0		6.01872265625	0.47748236083984374	0		0.007793920040130615	5.9835751953125	0		
0.021675479888916015	0.006376142024993896	0		0.5790872802734375	-2.43952197265625	0		-0.9640524291992187	0.03293636322021484	0		-0.5640108642578125	-2.438799560546875	0		1.49509033203125	-0.62794921875	0		3.07285595703125	-0.21961119079589844	0		4.3033818359375	0.46452886962890627	0		6.02283837890625	0.4858814697265625	0		-0.009243667602539063	5.97436572265625	0		
-0.005314626216888428	0.0062865719795227055	0		0.54905810546875	-2.4395791015625	0		-1.0368587646484375	0.04649486541748047	0		-0.5681113891601562	-2.444196044921875	0		1.5071138916015625	-0.6265997314453124	0		3.050971923828125	-0.21181953430175782	0		4.290755859375	0.490175048828125	0		6.021853515625	0.48533718872070314	0		-0.010126323699951171	5.9749189453125	0		
